<?xml version="1.0"?>
<svg xmlns="http://www.w3.org/2000/svg" xmlns:xlink="http://www.w3.org/1999/xlink" version="1.1" id="Capa_1" x="0px" y="0px" viewBox="0 0 480 480" style="enable-background:new 0 0 480 480;" xml:space="preserve" width="512px" height="512px" class=""><g><g>
	<g>
		<path d="M448,192c0-2.672-1.384-5.08-3.552-6.56C465.288,171.928,480,139.792,480,112c0-39.144-21.816-96-56-96    c-34.184,0-56,56.856-56,96c0,27.792,14.712,59.928,35.552,73.44c-2.168,1.48-3.552,3.888-3.552,6.56v163.136    c-4.888,27.336-8,58.944-8,68.864c0,22.056,14.352,40,32,40s32-17.944,32-40c0-9.912-3.112-41.504-8-68.84V192z M424,448    c-8.672,0-16-10.992-16-24c0-9.192,3.144-40.496,7.872-66.728c0.088-0.472,0.128-0.944,0.128-1.424V196.944l8-4l8,4v158.928    c0,0.48,0.04,0.952,0.128,1.424C436.856,383.52,440,414.816,440,424C440,437.008,432.672,448,424,448z M424,176    c-20.6,0-40-36.056-40-64c0-38.136,20.936-80,40-80c19.064,0,40,41.864,40,80C464,139.944,444.6,176,424,176z" data-original="#000000" class="active-path" data-old_color="#ffffff" fill="#ffffff"/>
	</g>
</g><g>
	<g>
		<path d="M88,16c-4.416,0-8,3.584-8,8v80H56V24c0-4.416-3.584-8-8-8s-8,3.584-8,8v80H16V24c0-4.416-3.584-8-8-8s-8,3.584-8,8v88v32    c0,18.584,10.632,34.696,26.12,42.672C24.816,188.12,24,189.984,24,192v163.136c-4.888,27.336-8,58.944-8,68.864    c0,22.056,14.352,40,32,40s32-17.944,32-40c0-9.912-3.112-41.504-8-68.84V192c0-2.016-0.816-3.88-2.12-5.328    C85.368,178.696,96,162.584,96,144v-32V24C96,19.584,92.416,16,88,16z M48,448c-8.672,0-16-10.992-16-24    c0-9.192,3.144-40.496,7.872-66.728C39.96,356.8,40,356.328,40,355.848V196.944l8-4l8,4v158.928c0,0.48,0.04,0.952,0.128,1.424    C60.856,383.52,64,414.816,64,424C64,437.008,56.672,448,48,448z M80,144c0,17.648-14.352,32-32,32s-32-14.352-32-32v-24h24v16    c0,4.416,3.584,8,8,8s8-3.584,8-8v-16h24V144z" data-original="#000000" class="active-path" data-old_color="#ffffff" fill="#ffffff"/>
	</g>
</g><g>
	<g>
		<path d="M280,355.16V272v-8V24c0-4.416-3.584-8-8-8h-16c-35.288,0-64,28.712-64,64v192c0,4.416,3.584,8,8,8h32v75.136    c-4.888,27.336-8,58.944-8,68.864c0,22.056,14.352,40,32,40s32-17.944,32-40C288,414.088,284.888,382.496,280,355.16z M232,264    h-24v-16h16c4.416,0,8-3.584,8-8c0-4.416-3.584-8-8-8h-16v-16h16c4.416,0,8-3.584,8-8s-3.584-8-8-8h-16v-16h16    c4.416,0,8-3.584,8-8s-3.584-8-8-8h-16v-16h16c4.416,0,8-3.584,8-8s-3.584-8-8-8h-16v-16h16c4.416,0,8-3.584,8-8s-3.584-8-8-8h-16    V88h16c4.416,0,8-3.584,8-8s-3.584-8-8-8h-15.28c3.832-22.664,23.544-40,47.28-40h8v232H232z M256,448c-8.672,0-16-10.992-16-24    c0-9.192,3.144-40.496,7.872-66.728L248,280h16v75.872l0.128,1.424C268.856,383.52,272,414.816,272,424    C272,437.008,264.672,448,256,448z" data-original="#000000" class="active-path" data-old_color="#ffffff" fill="#ffffff"/>
	</g>
</g></g> </svg>
