<?xml version="1.0" encoding="iso-8859-1"?>
<!-- Generator: Adobe Illustrator 19.0.0, SVG Export Plug-In . SVG Version: 6.00 Build 0)  -->
<svg version="1.1" id="Capa_1" xmlns="http://www.w3.org/2000/svg" xmlns:xlink="http://www.w3.org/1999/xlink" x="0px" y="0px"
	 viewBox="0 0 512.809 512.809" style="enable-background:new 0 0 512.809 512.809;" xml:space="preserve">
<path style="fill:#E55934;" d="M452.981,205.123c0,108.543-129.655,299.139-196.576,299.139
	c-69.827,0-196.577-190.595-196.577-299.139C59.828,96.579,147.86,8.548,256.405,8.548
	C364.948,8.548,452.981,96.579,452.981,205.123z"/>
<path style="fill:#EA7A5D;" d="M256.405,34.187c103.929,0,189.004,80.725,196.047,182.867c0.324-4.059,0.529-8.059,0.529-11.931
	c0-108.545-88.032-196.577-196.576-196.577C147.86,8.548,59.828,96.579,59.828,205.123c0,3.889,0.205,7.915,0.521,12
	C67.367,114.946,152.449,34.187,256.405,34.187z"/>
<circle style="fill:#F2F2F2;" cx="256.405" cy="196.577" r="136.747"/>
<path d="M256.405,341.872c-80.118,0-145.296-65.178-145.296-145.296c0-80.118,65.178-145.295,145.296-145.295
	c80.118,0,145.296,65.178,145.296,145.296S336.522,341.872,256.405,341.872z M256.405,68.375
	c-70.69,0-128.202,57.511-128.202,128.202c0,70.692,57.511,128.202,128.202,128.202s128.202-57.511,128.202-128.202
	S327.096,68.375,256.405,68.375z"/>
<ellipse style="fill:#F5BB00;" cx="307.682" cy="162.392" rx="25.64" ry="34.187"/>
<path d="M307.686,205.123c-18.855,0-34.188-19.171-34.188-42.734c0-23.564,15.332-42.735,34.188-42.735
	c18.854,0,34.187,19.171,34.187,42.735C341.872,185.952,326.54,205.123,307.686,205.123z M307.686,136.749
	c-9.265,0-17.094,11.744-17.094,25.641c0,13.898,7.829,25.641,17.094,25.641s17.093-11.744,17.093-25.641
	S316.951,136.749,307.686,136.749z"/>
<path d="M307.686,273.497c-4.718,0-8.548-3.82-8.548-8.548v-68.374c0-4.726,3.828-8.547,8.548-8.547c4.718,0,8.547,3.82,8.547,8.547
	v68.375C316.232,269.677,312.402,273.497,307.686,273.497z"/>
<path d="M213.671,273.497c-4.717,0-8.547-3.82-8.547-8.548v-68.374c0-4.726,3.829-8.547,8.547-8.547c4.719,0,8.548,3.82,8.548,8.547
	v68.375C222.218,269.677,218.389,273.497,213.671,273.497z"/>
<path d="M196.577,179.483c-4.717,0-8.547-3.82-8.547-8.548v-42.735c0-4.726,3.829-8.547,8.547-8.547c4.719,0,8.548,3.82,8.548,8.547
	v42.735C205.125,175.663,201.295,179.483,196.577,179.483z"/>
<path d="M230.765,179.483c-4.717,0-8.547-3.82-8.547-8.548v-42.735c0-4.726,3.829-8.547,8.547-8.547c4.719,0,8.548,3.82,8.548,8.547
	v42.735C239.312,175.663,235.482,179.483,230.765,179.483z"/>
<polygon style="fill:#F5BB00;" points="256.405,374.401 269.704,401.35 299.438,405.666 277.916,426.639 283.003,456.253 
	256.405,442.272 229.808,456.253 234.892,426.639 213.371,405.666 243.106,401.35 "/>
<path d="M283.003,464.809c-1.36,0-2.727-0.325-3.974-0.983l-22.624-11.897l-22.615,11.898c-2.863,1.522-6.366,1.255-8.999-0.641
	c-2.632-1.924-3.949-5.163-3.402-8.368l4.316-25.187l-18.298-17.838c-2.334-2.273-3.171-5.668-2.162-8.752
	c1.008-3.094,3.684-5.349,6.897-5.821l25.29-3.683l11.307-22.915c2.881-5.845,12.453-5.845,15.333,0l11.307,22.915l25.29,3.683
	c3.214,0.471,5.888,2.718,6.898,5.821c1.008,3.084,0.17,6.487-2.164,8.752l-18.299,17.838l4.316,25.187
	c0.547,3.205-0.77,6.445-3.402,8.368C286.533,464.254,284.771,464.809,283.003,464.809z M256.405,433.725
	c1.367,0,2.735,0.325,3.973,0.983l11.265,5.923l-2.153-12.556c-0.47-2.769,0.445-5.599,2.461-7.564l9.111-8.88l-12.598-1.837
	c-2.788-0.401-5.189-2.155-6.436-4.675l-5.624-11.402l-5.633,11.411c-1.248,2.519-3.649,4.272-6.436,4.673l-12.598,1.838l9.111,8.88
	c2.017,1.956,2.932,4.795,2.462,7.564l-2.155,12.555l11.266-5.922C253.67,434.049,255.037,433.725,256.405,433.725z"/>
<path d="M341.872,495.714h-41.306c72.878-49.947,160.962-198.406,160.962-290.591C461.528,92.023,369.504,0,256.405,0
	C143.305,0,51.281,92.023,51.281,205.123c0,92.186,88.083,240.644,160.962,290.591h-49.854c-4.717,0-8.547,3.821-8.547,8.548
	c0,4.727,3.829,8.547,8.547,8.547h179.484c4.717,0,8.547-3.82,8.547-8.547C350.421,499.535,346.59,495.714,341.872,495.714z
	 M68.375,205.123c0-103.681,84.348-188.029,188.029-188.029s188.029,84.348,188.029,188.029
	c0,108.161-128.168,290.591-188.029,290.591C186.424,495.714,68.375,297.634,68.375,205.123z"/>
<path d="M128.203,495.714H76.922c-4.717,0-8.547,3.821-8.547,8.548c0,4.727,3.829,8.547,8.547,8.547h51.281
	c4.718,0,8.548-3.82,8.548-8.547C136.751,499.535,132.921,495.714,128.203,495.714z"/>
<path d="M427.341,495.714H376.06c-4.718,0-8.548,3.821-8.548,8.548c0,4.727,3.83,8.547,8.548,8.547h51.281
	c4.717,0,8.547-3.82,8.547-8.547C435.888,499.535,432.058,495.714,427.341,495.714z"/>
<path d="M256.405,273.497c-4.717,0-8.548-3.82-8.548-8.548v-17.093c0-4.726,3.829-8.548,8.548-8.548c4.718,0,8.547,3.82,8.547,8.548
	v17.093C264.952,269.677,261.122,273.497,256.405,273.497z"/>
<g>
</g>
<g>
</g>
<g>
</g>
<g>
</g>
<g>
</g>
<g>
</g>
<g>
</g>
<g>
</g>
<g>
</g>
<g>
</g>
<g>
</g>
<g>
</g>
<g>
</g>
<g>
</g>
<g>
</g>
</svg>
