<?xml version="1.0" encoding="utf-8"?>
<!-- Generator: Adobe Illustrator 22.1.0, SVG Export Plug-In . SVG Version: 6.00 Build 0)  -->
<svg version="1.1" id="Capa_1" xmlns="http://www.w3.org/2000/svg" xmlns:xlink="http://www.w3.org/1999/xlink" x="0px" y="0px"
	 viewBox="0 0 512.8 512.8" style="enable-background:new 0 0 512.8 512.8;" xml:space="preserve">
<style type="text/css">
	.st0{fill:#E55934;}
	.st1{fill:#EA7A5D;}
	.st2{fill:#F2F2F2;}
	.st3{fill:#F5BB00;}
</style>
<path class="st0" d="M453,205.1c0,108.5-129.7,299.1-196.6,299.1c-69.8,0-196.6-190.6-196.6-299.1c0-108.5,88-196.6,196.6-196.6
	C364.9,8.5,453,96.6,453,205.1z"/>
<path class="st1" d="M256.4,34.2c103.9,0,189,80.7,196,182.9c0.3-4.1,0.5-8.1,0.5-11.9c0-108.5-88-196.6-196.6-196.6
	c-108.5,0-196.6,88-196.6,196.6c0,3.9,0.2,7.9,0.5,12C67.4,114.9,152.4,34.2,256.4,34.2z"/>
<circle class="st2" cx="256.4" cy="196.6" r="136.7"/>
<path d="M256.4,341.9c-80.1,0-145.3-65.2-145.3-145.3S176.3,51.3,256.4,51.3s145.3,65.2,145.3,145.3S336.5,341.9,256.4,341.9z
	 M256.4,68.4c-70.7,0-128.2,57.5-128.2,128.2c0,70.7,57.5,128.2,128.2,128.2s128.2-57.5,128.2-128.2S327.1,68.4,256.4,68.4z"/>
<polygon class="st3" points="256.4,140.3 274.6,177.2 315.3,183.1 285.8,211.8 292.8,252.3 256.4,233.2 220,252.3 227,211.8 
	197.5,183.1 238.2,177.2 "/>
<path d="M292.8,264c-1.9,0-3.7-0.4-5.4-1.3l-31-16.3l-31,16.3c-3.9,2.1-8.7,1.7-12.3-0.9c-3.6-2.6-5.4-7.1-4.7-11.5l5.9-34.5
	l-25-24.4c-3.2-3.1-4.3-7.8-3-12c1.4-4.2,5-7.3,9.4-8l34.6-5l15.5-31.4c3.9-8,17-8,21,0l15.5,31.4l34.6,5c4.4,0.6,8.1,3.7,9.4,8
	c1.4,4.2,0.2,8.9-3,12l-25,24.4l5.9,34.5c0.7,4.4-1.1,8.8-4.7,11.5C297.6,263.3,295.2,264,292.8,264z M256.4,221.5
	c1.9,0,3.7,0.4,5.4,1.3l15.4,8.1l-2.9-17.2c-0.6-3.8,0.6-7.7,3.4-10.4l12.5-12.2l-17.2-2.5c-3.8-0.5-7.1-2.9-8.8-6.4l-7.7-15.6
	l-7.7,15.6c-1.7,3.4-5,5.8-8.8,6.4l-17.2,2.5l12.5,12.2c2.8,2.7,4,6.6,3.4,10.4l-2.9,17.2l15.4-8.1
	C252.7,221.9,254.5,221.5,256.4,221.5z"/>
<path d="M256.4-2.2C143.1-2.2,51.3,89.6,51.3,202.9S183.5,515,256.4,515c69.8,0,205.1-198.9,205.1-312.1
	C461.5,89.6,369.7-2.2,256.4-2.2z M256.4,495.7c-70,0-188-198.1-188-290.6c0-103.7,84.3-188,188-188s188,84.3,188,188
	C444.4,313.3,316.3,495.7,256.4,495.7z"/>
</svg>
