<svg xmlns="http://www.w3.org/2000/svg" xmlns:xlink="http://www.w3.org/1999/xlink" viewBox="0 0 368.5 737.01"><defs><style>.cls-1{fill:none;}.cls-2{isolation:isolate;}.cls-3{clip-path:url(#clip-path);}.cls-4{fill:#fff;}.cls-5{fill:#b9f9f9;}.cls-6{fill:#ffb0ae;}.cls-10,.cls-7,.cls-9{fill:#fbb041;}.cls-7{opacity:0.2;mix-blend-mode:multiply;}.cls-8{fill:#ef908b;}.cls-9{opacity:0.56;}</style><clipPath id="clip-path"><rect class="cls-1" width="368.5" height="737.01" transform="translate(368.5 737.01) rotate(180)"/></clipPath></defs><title>splash-bg</title><g class="cls-2"><g id="PRINT1"><g class="cls-3"><rect class="cls-4" width="368.5" height="737.01" transform="translate(368.5 737.01) rotate(180)"/><ellipse class="cls-5" cx="296.41" cy="709.05" rx="89.29" ry="91.13"/><ellipse class="cls-5" cx="35.97" cy="262.01" rx="29.29" ry="29.12"/><ellipse class="cls-6" cx="140.26" cy="552.56" rx="15.08" ry="14.99"/><ellipse class="cls-7" cx="261.26" cy="591.53" rx="28" ry="27.84"/><ellipse class="cls-6" cx="171.59" cy="529.79" rx="6.63" ry="6.59"/><ellipse class="cls-6" cx="71.15" cy="235.52" rx="6.63" ry="6.59"/><ellipse class="cls-5" cx="269.62" cy="57.5" rx="6.63" ry="6.59"/><ellipse class="cls-8" cx="113.53" cy="510.6" rx="10.25" ry="10.19"/><ellipse class="cls-9" cx="62.99" cy="510.57" rx="68.18" ry="67.78"/><ellipse class="cls-6" cx="342.25" cy="-31.43" rx="68.18" ry="67.78"/><ellipse class="cls-10" cx="56.45" cy="694.61" rx="13.31" ry="13.23"/><ellipse class="cls-10" cx="354.33" cy="198.02" rx="15.08" ry="14.99"/><ellipse class="cls-10" cx="307.51" cy="28.11" rx="15.08" ry="14.99"/></g></g></g></svg>